# xmcd CD database file
#
# Track frame offsets:
#	150
#	21453
#	84012
#	115359
#	128679
#	163187
#
# Disc length: 2819 seconds
#
# Revision: 0
# Processed by: cddbd v1.5.1PL2 Copyright (c) Steve Scherf et al.
# Submitted via: CDex 1.51
#
DISCID=440b0106
DTITLE=Club d'Elf - Live 3/28/02 Athens, GA
DYEAR=1900
DGENRE=Jazz
TTITLE0=Fire in the Brain
TTITLE1=The Tingler Pt. 1
TTITLE2=Percepto
TTITLE3=The Tingler Pt. 2
TTITLE4=Left Hand of Clyde
TTITLE5=Shadow's Shift
EXTD=
EXTT0=
EXTT1=
EXTT2=
EXTT3=
EXTT4=
EXTT5=
PLAYORDER=
